<svg xmlns="http://www.w3.org/2000/svg" width="640" height="260" viewBox="0 0 640 260" role="img" aria-label="Ru0k3 GitHub statistics">
  <defs>
    <linearGradient id="panel" x1="0" x2="1" y1="0" y2="1">
      <stop offset="0%" stop-color="#0d1117"/>
      <stop offset="100%" stop-color="#111827"/>
    </linearGradient>
    <filter id="glow" x="-20%" y="-20%" width="140%" height="140%">
      <feDropShadow dx="0" dy="0" stdDeviation="2.5" flood-color="#58a6ff" flood-opacity="0.28"/>
    </filter>
  </defs>
  <rect x="0.5" y="0.5" width="639" height="259" rx="8" fill="url(#panel)" stroke="#30363d"/>
  <text x="28" y="42" fill="#58a6ff" font-family="'Consolas', 'Menlo', 'DejaVu Sans Mono', monospace" font-size="21" font-weight="700" filter="url(#glow)">Ru0k3's GitHub Stats</text>
  <text x="28" y="68" fill="#8b949e" font-family="'Consolas', 'Menlo', 'DejaVu Sans Mono', monospace" font-size="13">public profile snapshot</text>

  <g font-family="'Consolas', 'Menlo', 'DejaVu Sans Mono', monospace">
    <rect x="28" y="92" width="132" height="58" rx="6" fill="#161b22" stroke="#30363d"/>
    <text x="44" y="118" fill="#ffa657" font-size="13">Repos</text>
    <text x="44" y="140" fill="#79c0ff" font-size="24" font-weight="700">20</text>

    <rect x="178" y="92" width="132" height="58" rx="6" fill="#161b22" stroke="#30363d"/>
    <text x="194" y="118" fill="#ffa657" font-size="13">Contributed</text>
    <text x="194" y="140" fill="#79c0ff" font-size="24" font-weight="700">30</text>

    <rect x="328" y="92" width="132" height="58" rx="6" fill="#161b22" stroke="#30363d"/>
    <text x="344" y="118" fill="#ffa657" font-size="13">Commits</text>
    <text x="344" y="140" fill="#79c0ff" font-size="24" font-weight="700">109</text>

    <rect x="478" y="92" width="132" height="58" rx="6" fill="#161b22" stroke="#30363d"/>
    <text x="494" y="118" fill="#ffa657" font-size="13">Followers</text>
    <text x="494" y="140" fill="#79c0ff" font-size="24" font-weight="700">1</text>

    <text x="28" y="184" fill="#c9d1d9" font-size="15" font-weight="700">Top Languages</text>
    <rect x="28" y="202" width="584" height="18" rx="9" fill="#21262d"/>
    <rect x="28" y="202" width="270" height="18" rx="9" fill="#3178c6"/>
    <rect x="286" y="202" width="132" height="18" fill="#3572a5"/>
    <rect x="418" y="202" width="119" height="18" fill="#f1e05a"/>
    <rect x="537" y="202" width="49" height="18" fill="#563d7c"/>
    <rect x="586" y="202" width="26" height="18" rx="9" fill="#b07219"/>

    <circle cx="35" cy="241" r="5" fill="#3178c6"/>
    <text x="48" y="245" fill="#c9d1d9" font-size="12">TypeScript</text>
    <circle cx="137" cy="241" r="5" fill="#3572a5"/>
    <text x="150" y="245" fill="#c9d1d9" font-size="12">Python</text>
    <circle cx="218" cy="241" r="5" fill="#f1e05a"/>
    <text x="231" y="245" fill="#c9d1d9" font-size="12">JavaScript</text>
    <circle cx="330" cy="241" r="5" fill="#563d7c"/>
    <text x="343" y="245" fill="#c9d1d9" font-size="12">CSS</text>
    <circle cx="384" cy="241" r="5" fill="#b07219"/>
    <text x="397" y="245" fill="#c9d1d9" font-size="12">Java</text>
  </g>
</svg>
